<svg xmlns="http://www.w3.org/2000/svg" xmlns:xlink="http://www.w3.org/1999/xlink" version="1.1" width="50" height="50" viewBox="0 0 50 50" xml:space="preserve">
<desc>Created with Fabric.js 3.5.0</desc>
<defs>
</defs>
<rect x="0" y="0" width="100%" height="100%" fill="rgba(255,255,255,0)"/>
<g transform="matrix(1 0 0 1 25 25)" id="930300">
<path style="stroke: none; stroke-width: 1; stroke-dasharray: none; stroke-linecap: butt; stroke-dashoffset: 0; stroke-linejoin: miter; stroke-miterlimit: 4; is-custom-font: none; font-file-url: none; fill: rgb(189,189,189); fill-rule: nonzero; opacity: 1;" vector-effect="non-scaling-stroke" transform=" translate(-16, -16)" d="M 28 14 H 18 V 4 c 0 -1.104 -0.896 -2 -2 -2 s -2 0.896 -2 2 v 10 H 4 c -1.104 0 -2 0.896 -2 2 s 0.896 2 2 2 h 10 v 10 c 0 1.104 0.896 2 2 2 s 2 -0.896 2 -2 V 18 h 10 c 1.104 0 2 -0.896 2 -2 S 29.104 14 28 14 z" stroke-linecap="round"/>
</g>
</svg>