<svg xmlns="http://www.w3.org/2000/svg" xmlns:xlink="http://www.w3.org/1999/xlink" version="1.1" width="880" height="164" viewBox="0 0 880 164" xml:space="preserve">
<desc>Created with Fabric.js 3.5.0</desc>
<defs>
</defs>
<rect x="0" y="0" width="100%" height="100%" fill="rgba(255,255,255,0)"/>
<g transform="matrix(8.1315 0 0 8.1307 83.8152 81.8068)" id="650019">
<polygon style="stroke: none; stroke-width: 1; stroke-dasharray: none; stroke-linecap: butt; stroke-dashoffset: 0; stroke-linejoin: miter; stroke-miterlimit: 4; is-custom-font: none; font-file-url: none; fill: rgb(255,223,136); fill-rule: nonzero; opacity: 1;" vector-effect="non-scaling-stroke" points="0,-10 3.09,-3.417 10,-2.361 5,2.764 6.18,10 0,6.583 -6.18,10 -5,2.764 -10,-2.361 -3.09,-3.417 "/>
</g>
<g transform="matrix(8.1315 0 0 8.1307 248.1485 81.807)" id="376620">
<polygon style="stroke: none; stroke-width: 1; stroke-dasharray: none; stroke-linecap: butt; stroke-dashoffset: 0; stroke-linejoin: miter; stroke-miterlimit: 4; is-custom-font: none; font-file-url: none; fill: rgb(255,223,136); fill-rule: nonzero; opacity: 1;" vector-effect="non-scaling-stroke" points="0,-10 3.09,-3.417 10,-2.361 5,2.764 6.18,10 0,6.583 -6.18,10 -5,2.764 -10,-2.361 -3.09,-3.417 "/>
</g>
<g transform="matrix(8.1315 0 0 8.1307 412.3333 81.807)" id="566615">
<polygon style="stroke: none; stroke-width: 1; stroke-dasharray: none; stroke-linecap: butt; stroke-dashoffset: 0; stroke-linejoin: miter; stroke-miterlimit: 4; is-custom-font: none; font-file-url: none; fill: rgb(221,221,221); fill-rule: nonzero; opacity: 1;" vector-effect="non-scaling-stroke" points="0,-10 3.09,-3.417 10,-2.361 5,2.764 6.18,10 0,6.583 -6.18,10 -5,2.764 -10,-2.361 -3.09,-3.417 "/>
</g>
<g transform="matrix(8.1315 0 0 8.1307 576.3333 81.807)" id="698133">
<polygon style="stroke: none; stroke-width: 1; stroke-dasharray: none; stroke-linecap: butt; stroke-dashoffset: 0; stroke-linejoin: miter; stroke-miterlimit: 4; is-custom-font: none; font-file-url: none; fill: rgb(221,221,221); fill-rule: nonzero; opacity: 1;" vector-effect="non-scaling-stroke" points="0,-10 3.09,-3.417 10,-2.361 5,2.764 6.18,10 0,6.583 -6.18,10 -5,2.764 -10,-2.361 -3.09,-3.417 "/>
</g>
<g transform="matrix(8.1315 0 0 8.1307 740.6667 81.807)" id="508372">
<polygon style="stroke: none; stroke-width: 1; stroke-dasharray: none; stroke-linecap: butt; stroke-dashoffset: 0; stroke-linejoin: miter; stroke-miterlimit: 4; is-custom-font: none; font-file-url: none; fill: rgb(221,221,221); fill-rule: nonzero; opacity: 1;" vector-effect="non-scaling-stroke" points="0,-10 3.09,-3.417 10,-2.361 5,2.764 6.18,10 0,6.583 -6.18,10 -5,2.764 -10,-2.361 -3.09,-3.417 "/>
</g>
</svg>